<?xml version="1.0" encoding="utf-8"?>
<!-- Generator: Adobe Illustrator 21.0.2, SVG Export Plug-In . SVG Version: 6.00 Build 0)  -->
<svg version="1.1" id="Layer_1" xmlns="http://www.w3.org/2000/svg" xmlns:xlink="http://www.w3.org/1999/xlink" x="0px" y="0px"
	 viewBox="0 0 240 90" enable-background="new 0 0 240 90" xml:space="preserve">
<g display="none">
	<path display="inline" d="M195.5,117.6h-9.3l-9-26.7h8.6l5.2,20.6l5.4-20.6h8L195.5,117.6z"/>
	<path display="inline" d="M223.6,111.6c0.9-0.4,1.9-0.9,3-1.7l3.5,5c-1.3,1.1-2.7,1.9-4.4,2.6c-1.7,0.6-3.5,1-5.5,1
		c-2.8,0-5.3-0.6-7.4-1.8c-2.1-1.2-3.6-2.8-4.7-4.9c-1.1-2.1-1.7-4.6-1.7-7.3c0-2.8,0.6-5.3,1.7-7.4c1.1-2.2,2.8-3.9,4.8-5.1
		s4.5-1.9,7.4-1.9c2,0,3.7,0.3,5.3,0.8c1.6,0.6,3,1.4,4.4,2.5l-3.4,4.8c-1.9-1.3-3.9-2-6-2c-4,0-6,2.8-6,8.3c0,2.8,0.5,4.8,1.6,6
		c1,1.2,2.5,1.8,4.4,1.8C221.7,112.2,222.7,112,223.6,111.6z"/>
	<path display="inline" d="M260.6,92c0.9,1.3,1.3,3.2,1.3,6v19.7h-6.8V98.8c0-1-0.1-1.6-0.3-2c-0.2-0.4-0.5-0.6-1-0.6
		c-0.9,0-1.9,0.6-2.8,1.8v19.6h-5.6V98.8c0-1-0.1-1.6-0.3-2s-0.5-0.6-1-0.6c-0.9,0-1.9,0.6-2.8,1.8v19.6h-6.9V91h5.8l0.6,2.6
		c0.9-1.2,1.7-2.1,2.6-2.6c0.9-0.6,1.8-0.8,3-0.8c1,0,1.9,0.3,2.6,0.8s1.2,1.3,1.5,2.4c1.8-2.1,3.8-3.2,5.9-3.2
		C258.3,90.1,259.7,90.7,260.6,92z"/>
	<path display="inline" d="M280.7,112.2c0.8-0.4,1.2-1,1.2-1.9c0-0.6-0.2-1.1-0.5-1.5c-0.3-0.4-0.9-0.7-1.8-1.1
		c-0.9-0.4-2.2-0.8-4.1-1.3c-2.7-0.7-4.7-1.7-6.1-2.9c-1.4-1.3-2.1-3-2.1-5.2c0-2.4,1-4.4,3-6c2-1.5,4.9-2.3,8.5-2.3
		c4.2,0,7.8,1.1,10.8,3.3l-3.2,4.7c-2.4-1.5-4.9-2.3-7.4-2.3c-1.3,0-2.3,0.2-2.9,0.5c-0.6,0.3-0.9,0.9-0.9,1.6
		c0,0.5,0.2,0.9,0.5,1.2c0.3,0.3,0.9,0.6,1.8,1c0.9,0.3,2.2,0.8,4,1.3c1.9,0.5,3.5,1.1,4.7,1.8c1.2,0.6,2.2,1.5,2.8,2.6
		c0.7,1.1,1,2.4,1,4.1c0,1.9-0.6,3.5-1.7,4.8c-1.1,1.3-2.7,2.3-4.6,3c-1.9,0.7-4,1-6.3,1c-2.5,0-4.7-0.4-6.7-1.1
		c-2-0.7-3.7-1.7-5.1-3l4-4.5c2.4,1.9,5,2.8,7.8,2.8C278.8,112.8,279.9,112.6,280.7,112.2z"/>
	<path display="inline" fill="#8B79F2" d="M320.1,101v5.7l-19.6,12.2l-3.6-5.4l16.3-9.6l-16.3-9.3l3.5-5.7L320.1,101z"/>
</g>
<path fill="#4720A5" d="M50.1,15.9V71c0,0-29.9-7.6-28.9-28.4C28.4,17.9,50.1,15.9,50.1,15.9z"/>
<path fill="#624DA3" d="M50.1,15.9V71c0,0,29.9-7.6,28.9-28.4C71.7,17.9,50.1,15.9,50.1,15.9z"/>
<path d="M50.1,12.8c-40.9,20.4-40.9,40.9,0,61.3C91,53.7,91,33.2,50.1,12.8z M50.1,71c-36.7-18.4-36.7-36.7,0-55.1
	C86.8,34.3,86.8,52.6,50.1,71z"/>
<text transform="matrix(1 0 0 1 93.8847 68.2012)" font-family="'Calibri'" font-size="66.8425px">Logo</text>
</svg>
